<svg xmlns="http://www.w3.org/2000/svg" xmlns:xlink="http://www.w3.org/1999/xlink" width="500" zoomAndPan="magnify" viewBox="0 0 375 374.999991" height="500" preserveAspectRatio="xMidYMid meet" version="1.0"><defs><clipPath id="76be1fd681"><path d="M 49 73 L 326 73 L 326 321.691406 L 49 321.691406 Z M 49 73 " clip-rule="nonzero"/></clipPath><clipPath id="921a1c8aa5"><path d="M 152 146 L 309 146 L 309 255 L 152 255 Z M 152 146 " clip-rule="nonzero"/></clipPath><clipPath id="24ed5affbf"><path d="M 187.402344 48.972656 L 338.546875 200.117188 L 187.402344 351.261719 L 36.257812 200.117188 Z M 187.402344 48.972656 " clip-rule="nonzero"/></clipPath><clipPath id="e6f922ea55"><path d="M 187.402344 48.972656 L 338.546875 200.117188 L 187.402344 351.261719 L 36.257812 200.117188 Z M 187.402344 48.972656 " clip-rule="nonzero"/></clipPath><clipPath id="331a710287"><path d="M 66 146 L 223 146 L 223 255 L 66 255 Z M 66 146 " clip-rule="nonzero"/></clipPath><clipPath id="5e9152666a"><path d="M 187.402344 48.972656 L 338.546875 200.117188 L 187.402344 351.261719 L 36.257812 200.117188 Z M 187.402344 48.972656 " clip-rule="nonzero"/></clipPath><clipPath id="967efed700"><path d="M 187.402344 48.972656 L 338.546875 200.117188 L 187.402344 351.261719 L 36.257812 200.117188 Z M 187.402344 48.972656 " clip-rule="nonzero"/></clipPath></defs><g clip-path="url(#76be1fd681)"><path fill="#ffc700" d="M 324.382812 134.75 C 308.859375 54.902344 211.558594 53.566406 187.5625 128.210938 C 163.570312 53.570312 66.265625 54.902344 50.746094 134.75 C 36.660156 207.195312 187.5625 321.488281 187.5625 321.488281 C 187.5625 321.488281 338.464844 207.195312 324.382812 134.75 Z M 324.382812 134.75 " fill-opacity="1" fill-rule="nonzero"/></g><g clip-path="url(#921a1c8aa5)"><g clip-path="url(#24ed5affbf)"><g clip-path="url(#e6f922ea55)"><path fill="#ffffff" d="M 308.785156 200.277344 C 308.78125 170.339844 284.511719 146.070312 254.578125 146.070312 L 211.808594 146.0625 C 213.6875 147.570312 215.476562 149.203125 217.195312 150.921875 C 222.609375 156.335938 227.011719 162.457031 230.339844 169.101562 L 254.574219 169.105469 C 262.902344 169.097656 270.730469 172.34375 276.617188 178.230469 C 282.503906 184.121094 285.75 191.945312 285.746094 200.273438 C 285.75 208.597656 282.511719 216.410156 276.617188 222.308594 C 270.730469 228.195312 262.902344 231.441406 254.582031 231.4375 L 207.15625 231.4375 C 198.824219 231.441406 191 228.195312 185.113281 222.308594 C 179.21875 216.414062 175.980469 208.597656 175.980469 200.261719 C 175.972656 196.21875 176.746094 192.289062 178.21875 188.636719 C 175.367188 186.085938 171.71875 184.679688 167.859375 184.679688 L 155.214844 184.6875 C 153.742188 189.621094 152.945312 194.855469 152.933594 200.269531 C 152.933594 230.203125 177.210938 254.480469 207.148438 254.484375 L 254.585938 254.476562 C 284.515625 254.472656 308.78125 230.207031 308.785156 200.277344 Z M 308.785156 200.277344 " fill-opacity="1" fill-rule="nonzero"/></g></g></g><g clip-path="url(#331a710287)"><g clip-path="url(#5e9152666a)"><g clip-path="url(#967efed700)"><path fill="#ffffff" d="M 158.058594 249.875 C 152.636719 244.453125 148.195312 238.257812 144.828125 231.433594 L 120.421875 231.433594 C 112.09375 231.441406 104.269531 228.195312 98.382812 222.308594 C 92.496094 216.421875 89.257812 208.605469 89.257812 200.273438 C 89.25 191.945312 92.496094 184.121094 98.382812 178.234375 C 104.269531 172.347656 112.097656 169.101562 120.429688 169.101562 L 167.855469 169.101562 C 176.183594 169.109375 184 172.347656 189.886719 178.234375 C 195.78125 184.128906 199.019531 191.945312 199.023438 200.265625 C 199.023438 204.320312 198.253906 208.253906 196.785156 211.910156 C 199.636719 214.480469 203.300781 215.878906 207.160156 215.878906 L 219.785156 215.871094 C 221.265625 210.929688 222.058594 205.6875 222.066406 200.273438 C 222.066406 170.339844 197.789062 146.0625 167.855469 146.0625 L 120.421875 146.074219 C 90.480469 146.066406 66.214844 170.332031 66.214844 200.28125 C 66.210938 230.214844 90.476562 254.480469 120.414062 254.480469 L 163.117188 254.480469 C 161.378906 253.035156 159.6875 251.507812 158.066406 249.882812 Z M 158.058594 249.875 " fill-opacity="1" fill-rule="nonzero"/></g></g></g></svg>